<svg xmlns="http://www.w3.org/2000/svg" viewBox="0 0 512 512">
  <path fill="#FFE1B2" d="M216 296l96-152v344h-96m192-384l96-96v480h-96M24 392l96-64v160H24"/>
  <path d="M504 0h-64c-4.422 0-8 3.578-8 8s3.578 8 8 8h44.687L403.46 97.226l-94.54 39.392c-.27.113-.447.334-.7.472-.463.25-.884.53-1.296.875-.427.36-.79.74-1.126 1.174-.172.21-.412.34-.564.58l-88.73 140.49-41.48-76.05c-.177-.33-.47-.53-.683-.81-.33-.47-.65-.91-1.08-1.3-.41-.37-.87-.62-1.35-.89-.33-.186-.57-.465-.93-.61-.12-.05-.26-.026-.38-.07-.5-.173-1.01-.213-1.53-.285-.52-.07-1.03-.18-1.55-.146-.442.025-.87.18-1.31.28-.575.14-1.14.26-1.67.52-.11.055-.234.047-.345.107-.32.173-.515.462-.8.67-.466.34-.92.66-1.307 1.096-.377.42-.63.893-.904 1.38-.186.32-.46.555-.6.91L113.5 322.72l-93.93 62.622c-3.68 2.453-4.674 7.414-2.22 11.094 1.54 2.31 4.077 3.56 6.663 3.56 1.52 0 3.06-.437 4.43-1.343l95.99-63.993c.787-.522 1.442-1.227 2.012-2.016.186-.256.317-.52.468-.794.168-.3.39-.556.52-.885l41.692-104.22 39.86 73.076c.087.16.218.28.314.43.14.23.3.42.46.63.5.65 1.07 1.2 1.72 1.65.1.07.15.18.25.24.04.03.09.04.13.06.42.26.88.43 1.34.6.23.09.44.22.67.28.58.16 1.185.23 1.794.25.106.01.21.05.32.05H216c.82 0 1.64-.173 2.443-.434.467-.15.937-.302 1.372-.54h.004s.01-.01.02-.012c.81-.44 1.51-1.074 2.14-1.795.15-.17.29-.327.42-.506.11-.155.26-.27.36-.437l94.65-149.863 93.58-38.99.024-.01.055-.024c.525-.218.9-.603 1.35-.91.41-.28.87-.455 1.23-.818l.04-.04.025-.026L496 27.316V72c0 4.422 3.578 8 8 8s8-3.578 8-8V8c0-4.422-3.578-8-8-8z" fill="#FF4F19"/>
  <path d="M24 512c-4.422 0-8-3.578-8-8v-16c0-4.422 3.578-8 8-8s8 3.578 8 8v16c0 4.422-3.578 8-8 8zm96 0c-4.422 0-8-3.578-8-8v-16c0-4.422 3.578-8 8-8 4.422 0 8 3.578 8 8v16c0 4.422-3.578 8-8 8zm96 0c-4.422 0-8-3.578-8-8v-16c0-4.422 3.578-8 8-8s8 3.578 8 8v16c0 4.422-3.578 8-8 8zm96 0c-4.422 0-8-3.578-8-8v-16c0-4.422 3.578-8 8-8s8 3.578 8 8v16c0 4.422-3.578 8-8 8zm96 0c-4.422 0-8-3.578-8-8v-16c0-4.422 3.578-8 8-8 4.422 0 8 3.578 8 8v16c0 4.422-3.578 8-8 8zM24 112H8c-4.422 0-8-3.578-8-8 0-4.422 3.578-8 8-8h16c4.422 0 8 3.578 8 8 0 4.422-3.578 8-8 8zm0 96H8c-4.422 0-8-3.578-8-8 0-4.422 3.578-8 8-8h16c4.422 0 8 3.578 8 8 0 4.422-3.578 8-8 8zm0 96H8c-4.422 0-8-3.578-8-8s3.578-8 8-8h16c4.422 0 8 3.578 8 8s-3.578 8-8 8zm0 96H8c-4.422 0-8-3.578-8-8s3.578-8 8-8h16c4.422 0 8 3.578 8 8s-3.578 8-8 8z" fill="#5C546A"/>
  <path d="M24 496H8c-4.422 0-8-3.578-8-8s3.578-8 8-8h16c4.422 0 8 3.578 8 8s-3.578 8-8 8z" fill="#5C546A"/>
  <path d="M504 496H24c-4.422 0-8-3.578-8-8V8c0-4.422 3.578-8 8-8s8 3.578 8 8v472h472c4.422 0 8 3.578 8 8s-3.578 8-8 8z" fill="#5C546A"/>
  <path d="M312 336c-2.078 0-4.164-.883-5.68-2.32-1.445-1.523-2.32-3.523-2.32-5.68 0-2.164.875-4.242 2.32-5.68 2.96-2.96 8.32-2.96 11.36 0 1.437 1.516 2.32 3.516 2.32 5.68 0 2.078-.884 4.156-2.32 5.68-1.524 1.437-3.602 2.32-5.68 2.32zm0-32c-2.078 0-4.164-.883-5.68-2.32-1.445-1.523-2.32-3.523-2.32-5.68 0-2.164.875-4.164 2.32-5.68 3.04-2.96 8.32-2.96 11.36 0 1.437 1.516 2.32 3.516 2.32 5.68 0 2.156-.884 4.156-2.32 5.68-1.524 1.437-3.602 2.32-5.68 2.32zm0-32c-2.078 0-4.164-.883-5.68-2.32-1.445-1.523-2.32-3.523-2.32-5.68 0-2.164.875-4.164 2.32-5.68 3.04-2.96 8.32-2.96 11.36 0 1.437 1.516 2.32 3.602 2.32 5.68 0 2.156-.884 4.156-2.32 5.68-1.524 1.437-3.602 2.32-5.68 2.32zm0-32c-2.078 0-4.164-.883-5.68-2.32-1.445-1.523-2.32-3.523-2.32-5.68 0-2.164.875-4.164 2.32-5.68 3.04-2.96 8.32-2.96 11.36 0 1.437 1.516 2.32 3.602 2.32 5.68 0 2.156-.884 4.156-2.32 5.68-1.524 1.437-3.602 2.32-5.68 2.32zm0-32c-2.078 0-4.164-.883-5.68-2.32-1.445-1.523-2.32-3.523-2.32-5.68 0-2.164.875-4.164 2.32-5.68 2.96-2.96 8.398-2.96 11.36 0 1.437 1.516 2.32 3.602 2.32 5.68s-.884 4.156-2.32 5.68c-1.524 1.437-3.602 2.32-5.68 2.32zm0 256c-2.078 0-4.164-.883-5.68-2.32-1.445-1.523-2.32-3.523-2.32-5.68 0-2.164.875-4.164 2.32-5.68 2.96-2.96 8.398-2.96 11.36 0 1.437 1.516 2.32 3.602 2.32 5.68s-.884 4.156-2.32 5.68c-1.524 1.437-3.602 2.32-5.68 2.32zm0-32c-2.078 0-4.164-.805-5.68-2.32-1.445-1.523-2.32-3.523-2.32-5.68 0-2.164.875-4.242 2.32-5.68 2.96-2.96 8.398-2.96 11.36 0 1.437 1.516 2.32 3.516 2.32 5.68 0 2.078-.884 4.156-2.32 5.68-1.524 1.515-3.602 2.32-5.68 2.32zm0-32c-2.078 0-4.164-.883-5.68-2.32-1.445-1.523-2.32-3.602-2.32-5.68 0-2.164.875-4.242 2.32-5.68 2.96-2.96 8.398-2.96 11.36 0 1.437 1.516 2.32 3.516 2.32 5.68 0 2.078-.884 4.156-2.32 5.68-1.524 1.437-3.602 2.32-5.68 2.32zm0-32c-2.078 0-4.164-.883-5.68-2.32-1.445-1.523-2.32-3.602-2.32-5.68 0-2.164.875-4.242 2.32-5.68 2.96-2.96 8.32-2.96 11.36 0 1.437 1.516 2.32 3.516 2.32 5.68 0 2.078-.884 4.156-2.32 5.68-1.524 1.437-3.602 2.32-5.68 2.32z" fill="#FF4F19"/>
  <path d="M408 336c-2.164 0-4.164-.883-5.68-2.32-1.445-1.523-2.32-3.523-2.32-5.68 0-2.164.875-4.242 2.32-5.68 2.875-2.883 8.398-2.96 11.36 0 1.437 1.516 2.32 3.516 2.32 5.68 0 2.156-.884 4.156-2.32 5.68-1.524 1.437-3.524 2.32-5.68 2.32zm0-32c-2.078 0-4.164-.883-5.68-2.32-1.445-1.523-2.32-3.602-2.32-5.68s.875-4.164 2.32-5.68c2.96-2.96 8.398-2.96 11.36 0 1.437 1.516 2.32 3.602 2.32 5.68s-.884 4.156-2.32 5.68c-1.524 1.437-3.602 2.32-5.68 2.32zm0-32c-2.164 0-4.164-.883-5.68-2.32-1.445-1.523-2.32-3.523-2.32-5.68 0-2.164.875-4.164 2.32-5.68 2.96-2.96 8.398-2.96 11.36 0 1.437 1.516 2.32 3.516 2.32 5.68 0 2.156-.884 4.156-2.32 5.68-1.524 1.437-3.524 2.32-5.68 2.32zm0-32c-2.078 0-4.164-.883-5.68-2.32-1.445-1.523-2.32-3.602-2.32-5.68s.875-4.164 2.32-5.68c2.96-2.96 8.398-2.96 11.36 0 1.437 1.516 2.32 3.602 2.32 5.68s-.884 4.156-2.32 5.68c-1.524 1.437-3.602 2.32-5.68 2.32zm0-32c-2.164 0-4.164-.883-5.68-2.32-1.445-1.523-2.32-3.523-2.32-5.68 0-2.164.875-4.164 2.32-5.68 2.96-2.96 8.398-2.96 11.36 0 1.437 1.516 2.32 3.516 2.32 5.68 0 2.156-.884 4.156-2.32 5.68-1.524 1.437-3.524 2.32-5.68 2.32zm0-32c-2.078 0-4.164-.883-5.68-2.32-1.445-1.523-2.32-3.602-2.32-5.68s.875-4.164 2.32-5.68c2.96-2.96 8.398-2.96 11.36 0 1.437 1.516 2.32 3.602 2.32 5.68s-.884 4.156-2.32 5.68c-1.524 1.437-3.602 2.32-5.68 2.32zm0-32c-2.078 0-4.164-.883-5.68-2.32-1.445-1.523-2.32-3.602-2.32-5.68 0-2.164.875-4.164 2.32-5.68 2.96-2.96 8.398-2.96 11.36 0 1.437 1.516 2.32 3.516 2.32 5.68 0 2.078-.884 4.156-2.32 5.68-1.524 1.437-3.602 2.32-5.68 2.32zm0 320c-2.164 0-4.164-.883-5.68-2.398-1.445-1.445-2.32-3.445-2.32-5.602 0-2.078.875-4.164 2.32-5.68 2.96-2.96 8.398-2.96 11.36 0 1.437 1.516 2.32 3.602 2.32 5.68 0 2.156-.884 4.156-2.4 5.68-1.444 1.437-3.444 2.32-5.6 2.32zm0-32c-2.078 0-4.164-.883-5.68-2.32-1.445-1.523-2.32-3.602-2.32-5.68 0-2.164.875-4.164 2.32-5.68 2.96-2.96 8.398-2.96 11.36 0 1.437 1.516 2.32 3.516 2.32 5.68 0 2.078-.884 4.156-2.32 5.68-1.524 1.437-3.602 2.32-5.68 2.32zm0-32c-2.164 0-4.164-.883-5.68-2.32-1.445-1.523-2.32-3.523-2.32-5.68 0-2.164.875-4.164 2.32-5.68 2.96-2.96 8.398-2.96 11.36 0 1.437 1.516 2.32 3.602 2.32 5.68 0 2.156-.884 4.156-2.32 5.68-1.524 1.437-3.524 2.32-5.68 2.32zm0-32c-2.078 0-4.164-.883-5.68-2.32-1.445-1.523-2.32-3.602-2.32-5.68 0-2.164.875-4.242 2.32-5.68 2.96-2.96 8.398-2.96 11.36.078 1.437 1.438 2.32 3.438 2.32 5.602 0 2.078-.884 4.156-2.32 5.68-1.524 1.437-3.602 2.32-5.68 2.32z" fill="#E9001E"/>
  <path d="M216 336c-2.078 0-4.164-.883-5.68-2.32-1.445-1.523-2.32-3.602-2.32-5.68s.875-4.164 2.32-5.68c2.96-2.96 8.398-2.96 11.36 0 1.437 1.516 2.32 3.602 2.32 5.68s-.884 4.156-2.32 5.68c-1.524 1.437-3.602 2.32-5.68 2.32zm0 128c-2.078 0-4.164-.883-5.68-2.32-1.445-1.523-2.32-3.602-2.32-5.68 0-2.164.875-4.164 2.32-5.68 3.04-2.96 8.32-2.96 11.36 0 1.437 1.516 2.32 3.602 2.32 5.68s-.884 4.156-2.32 5.68c-1.524 1.437-3.602 2.32-5.68 2.32zm0-32c-2.078 0-4.164-.883-5.68-2.32-1.445-1.523-2.32-3.602-2.32-5.68s.875-4.164 2.32-5.68c3.04-2.96 8.32-2.96 11.36 0 1.437 1.516 2.32 3.602 2.32 5.68s-.884 4.156-2.32 5.68c-1.524 1.437-3.602 2.32-5.68 2.32zm0-32c-2.078 0-4.164-.883-5.68-2.32-1.445-1.523-2.32-3.523-2.32-5.68 0-2.164.875-4.164 2.32-5.68 3.04-2.96 8.32-2.96 11.36 0 1.437 1.516 2.32 3.602 2.32 5.68s-.884 4.156-2.32 5.68c-1.524 1.437-3.602 2.32-5.68 2.32zm0-32c-2.078 0-4.164-.883-5.68-2.32-1.445-1.523-2.32-3.602-2.32-5.68s.875-4.164 2.32-5.68c2.96-2.96 8.398-2.96 11.36 0 1.437 1.516 2.32 3.602 2.32 5.68s-.884 4.156-2.32 5.68c-1.524 1.437-3.602 2.32-5.68 2.32z" fill="#FF9600"/>
  <path d="M120 464c-2.078 0-4.164-.883-5.68-2.32-1.445-1.523-2.32-3.602-2.32-5.68 0-2.164.875-4.164 2.32-5.68 2.96-2.96 8.32-2.96 11.36 0 1.437 1.516 2.32 3.516 2.32 5.68 0 2.078-.884 4.156-2.32 5.68-1.524 1.437-3.602 2.32-5.68 2.32zm0-32c-2.078 0-4.164-.883-5.68-2.32-1.445-1.523-2.32-3.602-2.32-5.68s.875-4.164 2.32-5.68c2.96-2.96 8.398-2.96 11.36 0 1.437 1.516 2.32 3.602 2.32 5.68 0 2.156-.884 4.156-2.32 5.68-1.524 1.437-3.602 2.32-5.68 2.32zm0-32c-2.078 0-4.164-.883-5.68-2.32-1.445-1.523-2.32-3.523-2.32-5.68 0-2.078.875-4.164 2.32-5.68 2.96-2.96 8.32-2.96 11.36 0 1.437 1.516 2.32 3.516 2.32 5.68 0 2.156-.884 4.156-2.32 5.68-1.524 1.437-3.602 2.32-5.68 2.32zm0-32c-2.078 0-4.164-.883-5.68-2.32-1.445-1.523-2.32-3.602-2.32-5.68 0-2.164.875-4.164 2.32-5.68 2.96-2.96 8.32-2.96 11.36 0 1.437 1.516 2.32 3.516 2.32 5.68 0 2.078-.884 4.156-2.32 5.68-1.524 1.437-3.602 2.32-5.68 2.32z" fill="#FFD200"/>
</svg>
