<svg xmlns="http://www.w3.org/2000/svg" viewBox="0 0 512 512">
  <path fill="#FFF" d="M48 107.984h416v256H48z"/>
  <path fill="#FF4F19" d="M48 107.984h416v64H48z"/>
  <path d="M459.133 75.984H52.853C32.53 75.984 16 92.477 16 112.75v291.234c0 4.422 3.578 8 8 8h464c4.422 0 8-3.578 8-8V112.75c0-20.273-16.54-36.766-36.867-36.766zM48 355.984v-240c0-4.418 3.582-8 8-8h400c4.418 0 8 3.582 8 8v240c0 4.418-3.582 8-8 8H56c-4.418 0-8-3.582-8-8z" fill="#5C546A"/>
  <path d="M504 395.984H8c-4.422 0-8 3.578-8 8 0 17.664 14.367 32.03 32.03 32.03h447.94c17.664 0 32.03-14.366 32.03-32.03.002-4.422-3.576-8-7.998-8z" fill="#B9BBC1"/>
  <path d="M144 147.984H88c-4.422 0-8-3.578-8-8 0-4.422 3.578-8 8-8h56c4.422 0 8 3.578 8 8 0 4.422-3.578 8-8 8z" fill="#FFD200"/>
  <path d="M288 147.984h-8c-4.422 0-8-3.578-8-8 0-4.422 3.578-8 8-8h8c4.422 0 8 3.578 8 8 0 4.422-3.578 8-8 8zm40 0h-8c-4.422 0-8-3.578-8-8 0-4.422 3.578-8 8-8h8c4.422 0 8 3.578 8 8 0 4.422-3.578 8-8 8zm40 0h-8c-4.422 0-8-3.578-8-8 0-4.422 3.578-8 8-8h8c4.422 0 8 3.578 8 8 0 4.422-3.578 8-8 8zm40 0h-8c-4.422 0-8-3.578-8-8 0-4.422 3.578-8 8-8h8c4.422 0 8 3.578 8 8 0 4.422-3.578 8-8 8z" fill="#FFF"/>
  <path d="M224 339.984H88c-4.418 0-8-3.582-8-8v-128c0-4.418 3.582-8 8-8h136c4.418 0 8 3.582 8 8v128c0 4.418-3.582 8-8 8z" fill="#53DCFF"/>
  <path d="M416 211.984H264c-4.422 0-8-3.578-8-8 0-4.422 3.578-8 8-8h152c4.422 0 8 3.578 8 8 0 4.422-3.578 8-8 8z" fill="#FF4F19"/>
  <path d="M328 275.984h-64c-4.422 0-8-3.578-8-8s3.578-8 8-8h64c4.422 0 8 3.578 8 8s-3.578 8-8 8zm0 32h-64c-4.422 0-8-3.578-8-8s3.578-8 8-8h64c4.422 0 8 3.578 8 8s-3.578 8-8 8zm0 32h-64c-4.422 0-8-3.578-8-8s3.578-8 8-8h64c4.422 0 8 3.578 8 8s-3.578 8-8 8zm96-64h-64c-4.422 0-8-3.578-8-8s3.578-8 8-8h64c4.422 0 8 3.578 8 8s-3.578 8-8 8zm0 32h-64c-4.422 0-8-3.578-8-8s3.578-8 8-8h64c4.422 0 8 3.578 8 8s-3.578 8-8 8zm0 32h-64c-4.422 0-8-3.578-8-8s3.578-8 8-8h64c4.422 0 8 3.578 8 8s-3.578 8-8 8z" fill="#B9BBC1"/>
  <path d="M368 243.984H264c-4.422 0-8-3.578-8-8 0-4.422 3.578-8 8-8h104c4.422 0 8 3.578 8 8 0 4.422-3.578 8-8 8z" fill="#E9001E"/>
  <path d="M224 411.984h64c8.836 0 16-7.164 16-16h-96c0 8.837 7.163 16 16 16z" fill="#8B8996"/>
</svg>
