<svg xmlns="http://www.w3.org/2000/svg" viewBox="0 0 512.008 512.008">
  <path d="M280.01 464.008h-48c-4.422 0-8 3.578-8 8v8c0 17.648 14.352 32 32 32s32-14.352 32-32v-8c0-4.422-3.578-8-8-8z" fill="#868491"/>
  <path d="M256.002 464.008H232.01c-4.422 0-8 3.578-8 8v8c0 17.646 14.347 31.995 31.992 32v-48z" fill="#5C546A"/>
  <path d="M381.983 49.895C344.593 14.755 295.616-2.847 244.25.375 150.64 6.2 75.013 84.285 72.09 178.15c-2.156 69.546 34.375 133.577 95.344 167.116 15.156 8.344 24.57 24.367 24.57 41.828v60.914c0 17.648 14.352 32 32 32h64c17.648 0 32-14.352 32-32v-60.914c0-17.445 9.484-33.508 24.766-41.93 58.742-32.406 95.234-94.156 95.234-161.156 0-50.578-21.148-99.46-58.023-134.113z" fill="#FFCD00"/>
  <circle cx="256.002" cy="184.008" r="128" fill="#FFE671"/>
  <path d="M283.986 232.008c-10.633 0-16.07-6.203-20.03-10.727-3.493-3.98-4.884-5.27-8-5.27-3.103 0-4.485 1.29-7.962 5.27-3.734 4.274-9.383 10.735-20.016 10.735-10.625 0-16.273-6.46-20.008-10.734-3.477-3.977-4.86-5.266-7.96-5.266-4.423 0-8-3.58-8-8s3.577-8 8-8c10.624 0 16.272 6.46 20.007 10.732 3.477 3.977 4.86 5.266 7.96 5.266s4.493-1.29 7.97-5.265c3.734-4.27 9.383-10.732 20.008-10.732 10.633 0 16.07 6.203 20.03 10.727 3.493 3.983 4.884 5.272 8 5.272 3.11 0 4.5-1.29 7.993-5.267 3.742-4.274 9.39-10.735 20.03-10.735 4.423 0 8 3.577 8 8s-3.577 8-8 8c-3.116 0-4.507 1.29-8 5.272-3.74 4.275-9.39 10.728-20.022 10.728z" fill="#FFF"/>
  <path d="M232.002 384.008c-3.68 0-6.992-2.555-7.813-6.297l-40-184c-.94-4.32 1.8-8.57 6.11-9.52 4.343-.95 8.58 1.81 9.522 6.12l40 184c.937 4.32-1.806 8.58-6.118 9.525-.578.126-1.15.18-1.71.18zm48.015 0c-.563 0-1.133-.055-1.71-.18-4.314-.945-7.056-5.203-6.118-9.523l40-184c.94-4.313 5.16-7.063 9.52-6.117 4.31.945 7.05 5.203 6.112 9.523l-40 184c-.82 3.75-4.133 6.3-7.813 6.3z" fill="#5C546A"/>
  <path d="M190.633 376.008c.85 3.593 1.374 7.293 1.374 11.086v60.914c0 17.648 14.352 32 32 32h64c17.648 0 32-14.352 32-32v-60.914c0-3.79.527-7.49 1.384-11.086H190.64z" fill="#B4B6BC"/>
  <path d="M256.002 376.008h-65.37c.852 3.593 1.375 7.293 1.375 11.086v60.914c0 17.648 14.352 32 32 32h31.995v-104zm0 24h64v16h-64zm.004 32h64v16h-64z" fill="#868491"/>
  <path fill="#5C546A" d="M192.002 400.008h64v16h-64zm0 32h64v16h-64z"/>
</svg>
